<svg width="25" height="26" viewBox="0 0 25 26" fill="none" xmlns="http://www.w3.org/2000/svg">
<path d="M23.4375 24.8958C22.7448 11.2852 2.25521 11.2852 1.5625 24.8958M16.875 5.9375C16.875 7.09782 16.4141 8.21062 15.5936 9.03109C14.7731 9.85156 13.6603 10.3125 12.5 10.3125C11.3397 10.3125 10.2269 9.85156 9.40641 9.03109C8.58594 8.21062 8.125 7.09782 8.125 5.9375C8.125 4.77718 8.58594 3.66438 9.40641 2.84391C10.2269 2.02344 11.3397 1.5625 12.5 1.5625C13.6603 1.5625 14.7731 2.02344 15.5936 2.84391C16.4141 3.66438 16.875 4.77718 16.875 5.9375Z" stroke="#9E55EC" stroke-width="1.53191" stroke-linecap="round" stroke-linejoin="round"/>
</svg>
