<svg width="14" height="14" viewBox="0 0 14 14" fill="none" xmlns="http://www.w3.org/2000/svg">
<path d="M8.33332 5.66649L6.33332 7.66649M12.5253 1.02049C12.5886 0.998657 12.6567 0.995064 12.7219 1.01012C12.7871 1.02518 12.8468 1.05827 12.8941 1.10563C12.9413 1.15298 12.9744 1.21268 12.9893 1.27791C13.0043 1.34314 13.0006 1.41126 12.9787 1.47449L9.02932 12.7612C9.00569 12.8286 8.96233 12.8874 8.90486 12.93C8.8474 12.9725 8.77848 12.9968 8.70705 12.9996C8.63562 13.0025 8.56497 12.9838 8.50428 12.9461C8.44358 12.9083 8.39563 12.8532 8.36666 12.7878L6.22066 7.95982C6.18455 7.87953 6.12028 7.81526 6.03999 7.77915L1.21199 5.63249C1.14685 5.60341 1.09193 5.55546 1.05433 5.49484C1.01672 5.43423 0.99815 5.36373 1.00102 5.29245C1.00389 5.22118 1.02807 5.1524 1.07043 5.095C1.11279 5.03761 1.17139 4.99424 1.23866 4.97049L12.5253 1.02049Z" stroke="#9E55EC" stroke-linecap="round" stroke-linejoin="round"/>
</svg>
