<svg xmlns="http://www.w3.org/2000/svg" width="20" height="23" viewBox="0 0 20 23" fill="none">
  <path d="M18.943 16.335C18.3949 13.0635 16.8285 10.0484 14.467 7.719C13.95 7.216 13.692 6.965 13.121 6.733C12.55 6.5 12.059 6.5 11.078 6.5H8.92198C7.94098 6.5 7.44998 6.5 6.87898 6.733C6.30898 6.965 6.04898 7.216 5.53298 7.719C3.17144 10.0484 1.60508 13.0635 1.05698 16.335C0.569981 19.273 3.27998 21.5 6.30798 21.5H13.692C16.721 21.5 19.432 19.273 18.942 16.335" stroke="#05CD99" stroke-width="1.5" stroke-linecap="round" stroke-linejoin="round"/>
  <path d="M11.6272 12.419C11.4112 11.62 10.3102 10.9 8.98918 11.439C7.66818 11.978 7.45918 13.711 9.45618 13.896C10.3602 13.979 10.9482 13.799 11.4872 14.308C12.0272 14.816 12.1272 16.231 10.7482 16.612C9.37118 16.993 8.00618 16.398 7.85818 15.552M9.84218 10.492V11.253M9.84218 16.729V17.493M5.25718 3.943C5.05018 3.643 4.75118 3.235 5.36918 3.143C6.00418 3.047 6.66318 3.481 7.30918 3.473C7.89218 3.464 8.18918 3.205 8.50918 2.835C8.84518 2.446 9.36518 1.5 10.0002 1.5C10.6352 1.5 11.1552 2.446 11.4912 2.835C11.8112 3.205 12.1082 3.465 12.6912 3.472C13.3372 3.482 13.9962 3.047 14.6312 3.142C15.2492 3.235 14.9502 3.642 14.7432 3.942L13.8112 5.301C13.4112 5.881 13.2122 6.171 12.7942 6.336C12.3762 6.501 11.8372 6.5 10.7582 6.5H9.24218C8.16218 6.5 7.62318 6.5 7.20618 6.336C6.78918 6.172 6.58918 5.88 6.18918 5.3L5.25718 3.943Z" stroke="#05CD99" stroke-width="1.5" stroke-linecap="round" stroke-linejoin="round"/>
</svg>