<svg width="24" height="24" viewBox="0 0 24 24" fill="none" xmlns="http://www.w3.org/2000/svg">
<path d="M8.25 15.75C9.3125 16.5375 10.6062 17 12 17C13.3937 17 14.6875 16.5375 15.75 15.75M8.875 10.125V9.5M15.125 10.125V9.5" stroke="#867B9A" stroke-linecap="round" stroke-linejoin="round"/>
<path d="M23.25 12C23.25 13.4774 22.959 14.9403 22.3936 16.3052C21.8283 17.6701 20.9996 18.9103 19.9549 19.9549C18.9103 20.9996 17.6701 21.8283 16.3052 22.3936C14.9403 22.959 13.4774 23.25 12 23.25C10.5226 23.25 9.05972 22.959 7.69481 22.3936C6.3299 21.8283 5.08971 20.9996 4.04505 19.9549C3.00039 18.9103 2.17172 17.6701 1.60636 16.3052C1.04099 14.9403 0.75 13.4774 0.75 12C0.75 9.01631 1.93526 6.15483 4.04505 4.04505C6.15483 1.93526 9.01631 0.75 12 0.75C14.9837 0.75 17.8452 1.93526 19.9549 4.04505C22.0647 6.15483 23.25 9.01631 23.25 12Z" stroke="#867B9A" stroke-width="1.5" stroke-linecap="round" stroke-linejoin="round"/>
</svg>
