<svg width="24" height="25" viewBox="0 0 24 25" fill="none" xmlns="http://www.w3.org/2000/svg">
<path d="M18.6292 5.20789L18.6288 5.20771C18.1753 4.9817 17.763 4.74089 17.4294 4.33045L16.3172 3.22566C15.48 2.46487 14.2997 2.19347 13.2666 2.53553L13.2595 2.5379L13.2594 2.53779C12.4629 2.77517 11.5882 2.77517 10.7917 2.53779L10.7711 2.53165L10.7518 2.52209C9.80263 2.05055 8.71594 2.24772 7.96098 2.9253L6.61758 4.33586L6.6056 4.34844L6.592 4.35924L6.57389 4.37362C6.20771 4.66439 5.82545 4.96793 5.43986 5.19851L5.4314 5.20357L5.42257 5.20795L4.82222 5.5055C4.82216 5.50552 4.82211 5.50555 4.82205 5.50558C3.87639 5.97648 3.32384 7.05887 3.45784 8.15245L4.28122 12.3958L4.28243 12.4021L4.28235 12.4021C4.33599 12.7218 4.60078 12.9389 4.9358 12.9389C7.1055 12.9389 9.37907 12.9569 11.7035 12.9752L11.8678 12.9765C14.2497 12.9952 16.6838 13.0139 19.1153 13.0139C19.2819 13.0139 19.4073 12.9601 19.4983 12.8755C19.5914 12.7891 19.6636 12.6561 19.6937 12.4764L19.6948 12.4701L19.6949 12.4701L20.5195 8.21952C20.7252 7.0558 20.1736 5.976 19.2292 5.50564L18.6292 5.20789ZM18.6292 5.20789L19.2289 5.5055L18.6292 5.20789Z" fill="#212121" stroke="#4C435C" stroke-width="0.5"/>
<mask id="path-2-inside-1_2141_6575" fill="white">
<path d="M19.2165 11.798C19.1602 12.491 19.1152 13.2635 19.1152 13.2635C19.5652 13.2635 19.8652 12.965 19.9402 12.5173L20.0137 12.1378C20.4762 12.4519 20.8052 12.9269 20.9365 13.4703C21.0679 14.0137 20.9923 14.5865 20.7244 15.0772C20.4565 15.5679 20.0155 15.9413 19.4874 16.1246C18.9592 16.3079 18.3817 16.2881 17.8674 16.0689C17.3531 15.8497 16.9389 15.447 16.7053 14.939C16.4717 14.4311 16.4356 13.8544 16.604 13.3213C16.7724 12.7882 17.1332 12.3369 17.6162 12.0553C18.0991 11.7737 18.6696 11.682 19.2165 11.798ZM3.97723 12.1438L4.03573 12.4423C4.11073 12.89 4.48573 13.1885 4.93573 13.1885C4.93573 13.1885 4.89148 12.485 4.83673 11.7868C4.97123 11.7618 5.10898 11.7493 5.24998 11.7493C5.78835 11.7496 6.30876 11.9429 6.71676 12.2941C7.12475 12.6454 7.39328 13.1313 7.4736 13.6636C7.55392 14.1959 7.4407 14.7394 7.1545 15.1954C6.86829 15.6514 6.42808 15.9896 5.91377 16.1488C5.39945 16.3079 4.84514 16.2773 4.35144 16.0626C3.85775 15.8479 3.4574 15.4633 3.22308 14.9786C2.98876 14.4939 2.936 13.9412 3.07437 13.421C3.21275 12.9007 3.53308 12.4473 3.97723 12.143"/>
</mask>
<path d="M19.2165 11.798C19.1602 12.491 19.1152 13.2635 19.1152 13.2635C19.5652 13.2635 19.8652 12.965 19.9402 12.5173L20.0137 12.1378C20.4762 12.4519 20.8052 12.9269 20.9365 13.4703C21.0679 14.0137 20.9923 14.5865 20.7244 15.0772C20.4565 15.5679 20.0155 15.9413 19.4874 16.1246C18.9592 16.3079 18.3817 16.2881 17.8674 16.0689C17.3531 15.8497 16.9389 15.447 16.7053 14.939C16.4717 14.4311 16.4356 13.8544 16.604 13.3213C16.7724 12.7882 17.1332 12.3369 17.6162 12.0553C18.0991 11.7737 18.6696 11.682 19.2165 11.798ZM3.97723 12.1438L4.03573 12.4423C4.11073 12.89 4.48573 13.1885 4.93573 13.1885C4.93573 13.1885 4.89148 12.485 4.83673 11.7868C4.97123 11.7618 5.10898 11.7493 5.24998 11.7493C5.78835 11.7496 6.30876 11.9429 6.71676 12.2941C7.12475 12.6454 7.39328 13.1313 7.4736 13.6636C7.55392 14.1959 7.4407 14.7394 7.1545 15.1954C6.86829 15.6514 6.42808 15.9896 5.91377 16.1488C5.39945 16.3079 4.84514 16.2773 4.35144 16.0626C3.85775 15.8479 3.4574 15.4633 3.22308 14.9786C2.98876 14.4939 2.936 13.9412 3.07437 13.421C3.21275 12.9007 3.53308 12.4473 3.97723 12.143" fill="#F4C6AD"/>
<path d="M19.2165 11.798L19.7148 11.8385L19.7504 11.4002L19.3202 11.3089L19.2165 11.798ZM19.1152 13.2635L18.6161 13.2344L18.5853 13.7635H19.1152V13.2635ZM19.9402 12.5173L19.4492 12.4222L19.4471 12.4347L19.9402 12.5173ZM20.0137 12.1378L20.2947 11.7242L19.6671 11.2979L19.5229 12.0427L20.0137 12.1378ZM4.03573 12.4423L4.52905 12.3596L4.5264 12.3461L4.03573 12.4423ZM4.93573 13.1885V13.6885H5.46817L5.43475 13.1571L4.93573 13.1885ZM4.83673 11.7868L4.74536 11.2952L4.3031 11.3774L4.33826 11.8259L4.83673 11.7868ZM5.24998 11.7493L5.25025 11.2493H5.24998V11.7493ZM18.7181 11.7576C18.6897 12.1078 18.6642 12.477 18.6458 12.758C18.6366 12.8987 18.6292 13.0176 18.6241 13.1014C18.6215 13.1433 18.6195 13.1765 18.6182 13.1992C18.6175 13.2106 18.617 13.2193 18.6166 13.2253C18.6164 13.2282 18.6163 13.2305 18.6162 13.232C18.6162 13.2328 18.6161 13.2334 18.6161 13.2338C18.6161 13.234 18.6161 13.2342 18.6161 13.2343C18.6161 13.2343 18.6161 13.2344 18.6161 13.2344C18.6161 13.2344 18.6161 13.2344 18.6161 13.2344C18.6161 13.2344 18.6161 13.2344 19.1152 13.2635C19.6144 13.2926 19.6144 13.2926 19.6144 13.2926C19.6144 13.2926 19.6144 13.2926 19.6144 13.2926C19.6144 13.2926 19.6144 13.2925 19.6144 13.2925C19.6144 13.2924 19.6144 13.2923 19.6144 13.2921C19.6144 13.2918 19.6145 13.2912 19.6145 13.2905C19.6146 13.2891 19.6147 13.2869 19.6149 13.2841C19.6152 13.2784 19.6157 13.2698 19.6164 13.2587C19.6177 13.2365 19.6197 13.2039 19.6222 13.1625C19.6273 13.0799 19.6346 12.9623 19.6437 12.8232C19.6619 12.5447 19.687 12.1813 19.7148 11.8385L18.7181 11.7576ZM19.1152 13.7635C19.457 13.7635 19.7688 13.6474 20.0086 13.4247C20.2442 13.2059 20.3811 12.912 20.4334 12.5999L19.4471 12.4347C19.4244 12.5703 19.3738 12.6495 19.3281 12.6919C19.2867 12.7304 19.2234 12.7635 19.1152 12.7635V13.7635ZM20.4311 12.6123L20.5046 12.2328L19.5229 12.0427L19.4494 12.4222L20.4311 12.6123ZM19.7328 12.5514C20.0925 12.7957 20.3484 13.1652 20.4505 13.5878L21.4225 13.3528C21.262 12.6887 20.8599 12.1081 20.2947 11.7242L19.7328 12.5514ZM20.4505 13.5878C20.5527 14.0104 20.4939 14.456 20.2855 14.8376L21.1632 15.3168C21.4907 14.7171 21.5831 14.017 21.4225 13.3528L20.4505 13.5878ZM20.2855 14.8376C20.0772 15.2193 19.7342 15.5097 19.3234 15.6523L19.6513 16.597C20.2968 16.3729 20.8358 15.9166 21.1632 15.3168L20.2855 14.8376ZM19.3234 15.6523C18.9126 15.7948 18.4635 15.7794 18.0635 15.6089L17.6714 16.5289C18.3 16.7968 19.0058 16.821 19.6513 16.597L19.3234 15.6523ZM18.0635 15.6089C17.6635 15.4385 17.3412 15.1252 17.1596 14.7301L16.251 15.1479C16.5365 15.7687 17.0428 16.261 17.6714 16.5289L18.0635 15.6089ZM17.1596 14.7301C16.9779 14.3351 16.9498 13.8866 17.0808 13.4719L16.1272 13.1707C15.9214 13.8223 15.9656 14.5271 16.251 15.1479L17.1596 14.7301ZM17.0808 13.4719C17.2118 13.0573 17.4924 12.7063 17.868 12.4873L17.3643 11.6234C16.774 11.9676 16.333 12.5192 16.1272 13.1707L17.0808 13.4719ZM17.868 12.4873C18.2437 12.2682 18.6874 12.1969 19.1127 12.2871L19.3202 11.3089C18.6518 11.1671 17.9546 11.2792 17.3643 11.6234L17.868 12.4873ZM3.48657 12.2399L3.54507 12.5384L4.5264 12.3461L4.4679 12.0476L3.48657 12.2399ZM3.5426 12.5249C3.66024 13.2271 4.25553 13.6885 4.93573 13.6885V12.6885C4.71594 12.6885 4.56123 12.5529 4.52886 12.3597L3.5426 12.5249ZM4.93573 13.1885C5.43475 13.1571 5.43475 13.1571 5.43475 13.1571C5.43474 13.1571 5.43474 13.1571 5.43474 13.1571C5.43474 13.1571 5.43474 13.157 5.43474 13.157C5.43473 13.1569 5.43472 13.1567 5.43471 13.1566C5.43469 13.1562 5.43465 13.1557 5.43461 13.155C5.43452 13.1536 5.43439 13.1515 5.43422 13.1488C5.43388 13.1434 5.43337 13.1354 5.43271 13.125C5.43138 13.1042 5.42942 13.0738 5.42691 13.0352C5.42188 12.9579 5.4146 12.8477 5.40561 12.7155C5.38764 12.4514 5.36276 12.0991 5.3352 11.7477L4.33826 11.8259C4.36545 12.1726 4.39008 12.5212 4.40792 12.7834C4.41683 12.9144 4.42404 13.0237 4.42902 13.1002C4.43151 13.1384 4.43344 13.1684 4.43474 13.1888C4.4354 13.199 4.43589 13.2068 4.43622 13.2121C4.43639 13.2147 4.43651 13.2167 4.4366 13.218C4.43664 13.2186 4.43667 13.2191 4.43669 13.2195C4.4367 13.2196 4.43671 13.2197 4.43671 13.2198C4.43671 13.2198 4.43672 13.2199 4.43672 13.2199C4.43672 13.2199 4.43672 13.2199 4.43672 13.2199C4.43672 13.2199 4.43672 13.2199 4.93573 13.1885ZM4.9281 12.2783C5.03156 12.2591 5.1387 12.2493 5.24998 12.2493V11.2493C5.07927 11.2493 4.9109 11.2644 4.74536 11.2952L4.9281 12.2783ZM5.24972 12.2493C5.66844 12.2495 6.07321 12.3998 6.39054 12.673L7.04297 11.9152C6.54431 11.4859 5.90825 11.2496 5.25025 11.2493L5.24972 12.2493ZM6.39054 12.673C6.70787 12.9462 6.91673 13.3241 6.9792 13.7382L7.96801 13.589C7.86984 12.9384 7.54164 12.3445 7.04297 11.9152L6.39054 12.673ZM6.9792 13.7382C7.04167 14.1522 6.95361 14.5749 6.73101 14.9296L7.57799 15.4612C7.92779 14.9039 8.06617 14.2396 7.96801 13.589L6.9792 13.7382ZM6.73101 14.9296C6.5084 15.2843 6.16601 15.5473 5.76599 15.6711L6.06154 16.6264C6.69015 16.4319 7.22819 16.0185 7.57799 15.4612L6.73101 14.9296ZM5.76599 15.6711C5.36597 15.7948 4.93484 15.7711 4.55085 15.6041L4.15203 16.5211C4.75544 16.7835 5.43294 16.8209 6.06154 16.6264L5.76599 15.6711ZM4.55085 15.6041C4.16687 15.4371 3.85549 15.1379 3.67324 14.7609L2.77293 15.1962C3.05932 15.7886 3.54863 16.2587 4.15203 16.5211L4.55085 15.6041ZM3.67324 14.7609C3.49099 14.384 3.44995 13.9541 3.55757 13.5495L2.59117 13.2924C2.42205 13.9283 2.48653 14.6038 2.77293 15.1962L3.67324 14.7609ZM3.55757 13.5495C3.6652 13.1448 3.91435 12.7922 4.2598 12.5555L3.69467 11.7305C3.15182 12.1024 2.76029 12.6565 2.59117 13.2924L3.55757 13.5495Z" fill="#4C435C" mask="url(#path-2-inside-1_2141_6575)"/>
<path d="M4.86739 13.1863C4.88989 13.1878 4.91264 13.1885 4.93564 13.1885C4.93564 13.1885 4.86064 11.9953 4.78564 11.1748C4.78564 10.8013 4.93564 10.3543 5.23564 10.13L5.46064 9.90651C5.83564 9.60801 5.98564 9.16026 5.98564 8.71326V7.51926C5.98564 7.14651 6.21064 6.84801 6.58564 6.77376C7.48639 6.54951 9.36214 6.17676 12.0629 6.17676C14.7636 6.17676 16.6394 6.54951 17.5394 6.77376C17.8394 6.84801 18.1394 7.14651 18.1394 7.51926V8.71326C18.1394 9.16026 18.3644 9.60801 18.6644 9.90576L18.8144 10.205C19.1144 10.5028 19.2644 10.8763 19.2644 11.249C19.1894 11.9953 19.1144 13.2628 19.1144 13.2628H19.1399L18.7686 18.7993C18.5436 21.2743 16.5981 22.9993 14.2784 22.9993H9.78739C7.39264 22.9993 5.52139 21.2743 5.29714 18.7993L4.86739 13.1863Z" fill="#FFD7C2"/>
<path d="M11.4651 13.6451L10.7226 16.0226C10.6874 16.136 10.6795 16.2561 10.6995 16.3732C10.7195 16.4903 10.7669 16.6009 10.8379 16.6962C10.9088 16.7915 11.0012 16.8686 11.1076 16.9214C11.214 16.9741 11.3314 17.001 11.4501 16.9998H12.5496C13.0656 16.9998 13.4294 16.5033 13.2771 16.0218L12.5346 13.6443C12.3749 13.1186 11.6324 13.1186 11.4651 13.6443" fill="#E5AF93"/>
<path d="M12 18.4213C11.3268 18.4258 10.6624 18.2684 10.0627 17.9623C9.87148 17.8648 9.66523 18.0808 9.78598 18.2548C10.0284 18.6197 10.3575 18.9188 10.7439 19.1252C11.1303 19.3317 11.5619 19.439 12 19.4376C12.4381 19.439 12.8697 19.3317 13.2561 19.1252C13.6425 18.9188 13.9716 18.6197 14.214 18.2548C14.334 18.0741 14.1285 17.8648 13.9372 17.9623C13.3376 18.2684 12.6732 18.4258 12 18.4213Z" fill="#990838"/>
<path d="M6.76113 13.5247C6.86952 13.0942 7.12118 12.7134 7.47471 12.445C7.82825 12.1765 8.26262 12.0363 8.70639 12.0475C9.15017 12.0587 9.57694 12.2205 9.91652 12.5064C10.2561 12.7923 10.4883 13.1853 10.5749 13.6207C10.5834 13.6672 10.5815 13.7151 10.5694 13.7608C10.5573 13.8065 10.5352 13.849 10.5047 13.8852C10.4743 13.9213 10.4362 13.9504 10.3932 13.9701C10.3502 13.9899 10.3034 13.9999 10.2561 13.9994H7.13838C7.07988 14.0001 7.02201 13.9873 6.96919 13.9622C6.91638 13.937 6.87 13.9002 6.8336 13.8544C6.79721 13.8086 6.77176 13.7551 6.7592 13.6979C6.74664 13.6408 6.7473 13.5815 6.76113 13.5247ZM17.2386 13.5247C17.1303 13.1038 16.8855 12.7308 16.5426 12.4638C16.1997 12.1969 15.7779 12.0512 15.3434 12.0494C14.891 12.0483 14.4523 12.2046 14.1024 12.4914C13.7526 12.7781 13.5133 13.1776 13.4256 13.6214C13.4173 13.6679 13.4192 13.7155 13.4313 13.7611C13.4435 13.8067 13.4655 13.849 13.4959 13.8851C13.5262 13.9212 13.5642 13.9501 13.607 13.9699C13.6498 13.9897 13.6965 13.9998 13.7436 13.9994H16.8614C16.9199 14.0001 16.9777 13.9873 17.0306 13.9622C17.0834 13.937 17.1298 13.9002 17.1661 13.8544C17.2025 13.8086 17.228 13.7551 17.2406 13.6979C17.2531 13.6408 17.2525 13.5815 17.2386 13.5247Z" fill="white"/>
<path d="M7.69435 13.6677C7.69437 13.4897 7.73249 13.3137 7.80613 13.1516C7.87978 12.9895 7.98726 12.8451 8.12134 12.7279C8.25543 12.6108 8.41303 12.5237 8.58355 12.4725C8.75407 12.4214 8.93357 12.4073 9.11 12.4312C9.28642 12.4551 9.45569 12.5165 9.60643 12.6112C9.75717 12.7059 9.88589 12.8318 9.98396 12.9804C10.082 13.129 10.1472 13.2969 10.175 13.4727C10.2028 13.6486 10.1927 13.8283 10.1454 14H7.7386C7.70904 13.8917 7.69466 13.78 7.69435 13.6677ZM16.3059 13.6677C16.3059 12.9732 15.7434 12.419 15.0549 12.419C14.8908 12.4181 14.7283 12.4498 14.5766 12.5123C14.4249 12.5748 14.2872 12.6668 14.1714 12.783C14.0557 12.8992 13.9641 13.0372 13.9022 13.1891C13.8402 13.341 13.8091 13.5037 13.8106 13.6677C13.8106 13.7857 13.8256 13.8965 13.8556 14H16.2616C16.2916 13.889 16.3066 13.7855 16.3066 13.6677" fill="#7D4533"/>
<path d="M8.94525 12.958C9.06779 12.9577 9.18833 12.9891 9.29516 13.0491C9.40198 13.1092 9.49145 13.1959 9.55486 13.3007C9.61828 13.4056 9.65348 13.5251 9.65705 13.6476C9.66062 13.77 9.63244 13.8914 9.57525 13.9998H8.316C8.2588 13.8914 8.23062 13.77 8.23419 13.6476C8.23776 13.5251 8.27297 13.4056 8.33638 13.3007C8.39979 13.1959 8.48926 13.1092 8.59609 13.0491C8.70291 12.9891 8.82345 12.9577 8.946 12.958M15.0472 12.958C14.9247 12.9577 14.8042 12.9891 14.6973 13.0491C14.5905 13.1092 14.501 13.1959 14.4376 13.3007C14.3742 13.4056 14.339 13.5251 14.3354 13.6476C14.3319 13.77 14.36 13.8914 14.4172 13.9998H15.6765C15.7337 13.8914 15.7619 13.77 15.7583 13.6476C15.7547 13.5251 15.7195 13.4056 15.6561 13.3007C15.5927 13.1959 15.5032 13.1092 15.3964 13.0491C15.2896 12.9891 15.1698 12.9577 15.0472 12.958Z" fill="black"/>
<path d="M8.73744 13.1898C8.73744 13.3143 8.63844 13.4148 8.51619 13.4148C8.45704 13.4141 8.40057 13.39 8.35903 13.3479C8.31748 13.3058 8.29418 13.249 8.29419 13.1898C8.29419 13.0653 8.39319 12.9648 8.51619 12.9648C8.63919 12.9648 8.73819 13.0653 8.73819 13.1898M14.8844 13.1898C14.8844 13.3143 14.7847 13.4148 14.6617 13.4148C14.6025 13.4141 14.5461 13.39 14.5045 13.3479C14.463 13.3058 14.4397 13.249 14.4397 13.1898C14.4397 13.0653 14.5394 12.9648 14.6617 12.9648C14.7847 12.9648 14.8844 13.0653 14.8844 13.1898Z" fill="white"/>
<path d="M6.72214 10.2403L6.72364 10.2388L6.72589 10.2373L6.73264 10.232L6.74914 10.2185L6.79939 10.181C6.84089 10.1505 6.89639 10.113 6.96589 10.0685C7.10539 9.98078 7.30339 9.87203 7.55314 9.77303C8.2165 9.5136 8.93738 9.43719 9.64039 9.55178C9.73726 9.56704 9.83017 9.60124 9.91382 9.65241C9.99747 9.70359 10.0702 9.77073 10.1279 9.85002C10.1856 9.92931 10.2271 10.0192 10.2501 10.1145C10.2731 10.2099 10.277 10.3088 10.2618 10.4057C10.2465 10.5025 10.2123 10.5954 10.1611 10.6791C10.11 10.7627 10.0428 10.8355 9.96352 10.8932C9.88423 10.9509 9.79435 10.9924 9.69902 11.0154C9.60368 11.0383 9.50476 11.0423 9.40789 11.027C8.96818 10.9535 8.51678 11.0002 8.10139 11.162C7.95341 11.2201 7.81251 11.2949 7.68139 11.3848L7.67089 11.393C7.59525 11.4554 7.50807 11.5022 7.41433 11.5309C7.32059 11.5595 7.22212 11.5694 7.12455 11.56C7.02698 11.5506 6.93221 11.5221 6.84567 11.4761C6.75912 11.43 6.68249 11.3674 6.62014 11.2918C6.5578 11.2161 6.51096 11.129 6.48231 11.0352C6.45365 10.9415 6.44375 10.843 6.45315 10.7454C6.47214 10.5484 6.56863 10.3669 6.72139 10.241M17.2011 10.2403L17.1996 10.2388L17.1974 10.2373L17.1906 10.232L17.1741 10.2185L17.1239 10.181C17.0697 10.1417 17.0141 10.1042 16.9574 10.0685C16.7707 9.95303 16.5742 9.85415 16.3701 9.77303C15.7068 9.5136 14.9859 9.43719 14.2829 9.55178C14.186 9.56704 14.0931 9.60124 14.0095 9.65241C13.9258 9.70359 13.8531 9.77073 13.7954 9.85002C13.7377 9.92931 13.6961 10.0192 13.6732 10.1145C13.6502 10.2099 13.6463 10.3088 13.6615 10.4057C13.6768 10.5025 13.711 10.5954 13.7622 10.6791C13.8133 10.7627 13.8805 10.8355 13.9598 10.8932C14.0391 10.9509 14.1289 10.9924 14.2243 11.0154C14.3196 11.0383 14.4185 11.0423 14.5154 11.027C14.9551 10.9535 15.4065 11.0002 15.8219 11.162C15.9694 11.2212 16.1102 11.2959 16.2419 11.3848L16.2524 11.393C16.4053 11.5188 16.6018 11.5788 16.7989 11.5596C16.9959 11.5405 17.1773 11.4439 17.3031 11.291C17.429 11.1382 17.4889 10.9416 17.4698 10.7445C17.4506 10.5475 17.354 10.3661 17.2011 10.2403Z" fill="#212121"/>
</svg>
