<svg width="24" height="25" viewBox="0 0 24 25" fill="none" xmlns="http://www.w3.org/2000/svg">
<mask id="path-1-inside-1_2141_6702" fill="white">
<path d="M19.7586 4.94475C19.3461 4.77975 19.0146 4.45725 18.8301 4.04475C18.3291 2.874 17.1951 2.04075 15.8691 1.99575C15.1813 1.97424 14.504 2.16829 13.9319 2.55075C13.6004 2.77575 13.1654 2.77575 12.8339 2.55075C12.2645 2.16841 11.5896 1.9743 10.9041 1.99575C10.0317 2.02636 9.20625 2.3983 8.60537 3.0315C8.33312 3.3165 7.97237 3.504 7.58912 3.594C6.80737 3.76271 6.09569 4.16591 5.54912 4.74975L5.54162 4.75725C4.37687 5.988 3.75062 7.60125 3.75812 9.30525V9.32025C3.76562 9.38025 3.75812 13.995 3.75812 13.995H4.50362L19.4991 14.01L20.2491 13.998C20.2491 13.998 20.2821 12.5805 20.3031 12.1493C20.3204 11.7773 20.3324 11.1968 20.3324 11.1968C20.3474 10.6935 20.5529 10.2135 20.8844 9.8385C21.3682 9.29308 21.6426 8.59346 21.6584 7.8645C21.676 7.24242 21.5035 6.62975 21.164 6.10821C20.8244 5.58667 20.3339 5.18107 19.7579 4.9455"/>
</mask>
<path d="M19.7586 4.94475C19.3461 4.77975 19.0146 4.45725 18.8301 4.04475C18.3291 2.874 17.1951 2.04075 15.8691 1.99575C15.1813 1.97424 14.504 2.16829 13.9319 2.55075C13.6004 2.77575 13.1654 2.77575 12.8339 2.55075C12.2645 2.16841 11.5896 1.9743 10.9041 1.99575C10.0317 2.02636 9.20625 2.3983 8.60537 3.0315C8.33312 3.3165 7.97237 3.504 7.58912 3.594C6.80737 3.76271 6.09569 4.16591 5.54912 4.74975L5.54162 4.75725C4.37687 5.988 3.75062 7.60125 3.75812 9.30525V9.32025C3.76562 9.38025 3.75812 13.995 3.75812 13.995H4.50362L19.4991 14.01L20.2491 13.998C20.2491 13.998 20.2821 12.5805 20.3031 12.1493C20.3204 11.7773 20.3324 11.1968 20.3324 11.1968C20.3474 10.6935 20.5529 10.2135 20.8844 9.8385C21.3682 9.29308 21.6426 8.59346 21.6584 7.8645C21.676 7.24242 21.5035 6.62975 21.164 6.10821C20.8244 5.58667 20.3339 5.18107 19.7579 4.9455" fill="#212121"/>
<path d="M18.8301 4.04475L18.3704 4.24149L18.3737 4.2489L18.8301 4.04475ZM15.8691 1.99575L15.8861 1.49604L15.8848 1.496L15.8691 1.99575ZM13.9319 2.55075L13.654 2.13508L13.6511 2.13705L13.9319 2.55075ZM12.8339 2.55075L13.1147 2.13704L13.1126 2.13567L12.8339 2.55075ZM10.9041 1.99575L10.8885 1.496L10.8866 1.49606L10.9041 1.99575ZM8.60537 3.0315L8.96692 3.37688L8.96806 3.37568L8.60537 3.0315ZM7.58912 3.594L7.69461 4.08283L7.70343 4.08076L7.58912 3.594ZM5.54912 4.74975L5.90268 5.10331L5.90851 5.09748L5.91414 5.09146L5.54912 4.74975ZM5.54162 4.75725L5.18794 4.40357L5.17847 4.41357L5.54162 4.75725ZM3.75812 9.30525H4.25813L4.25812 9.30305L3.75812 9.30525ZM3.75812 9.32025H3.25812V9.35138L3.26198 9.38227L3.75812 9.32025ZM3.75812 13.995L3.25812 13.9942L3.25731 14.495H3.75812V13.995ZM4.50362 13.995L4.50412 13.495H4.50362V13.995ZM19.4991 14.01L19.4986 14.5101L19.5071 14.5099L19.4991 14.01ZM20.2491 13.998L20.2571 14.4979L20.7378 14.4902L20.749 14.0096L20.2491 13.998ZM20.3031 12.1493L20.8025 12.1736L20.8026 12.1724L20.3031 12.1493ZM20.3324 11.1968L19.8326 11.1819L19.8325 11.1864L20.3324 11.1968ZM20.8844 9.8385L20.5103 9.50669L20.5098 9.50735L20.8844 9.8385ZM21.6584 7.8645L21.1586 7.85034L21.1585 7.85366L21.6584 7.8645ZM19.9443 4.48052C19.6557 4.36507 19.4195 4.1378 19.2865 3.84061L18.3737 4.2489C18.6098 4.77671 19.0365 5.19444 19.5729 5.40899L19.9443 4.48052ZM19.2898 3.84804C18.7166 2.5086 17.4162 1.54797 15.8861 1.49604L15.8522 2.49547C16.9741 2.53354 17.9416 3.23941 18.3704 4.24147L19.2898 3.84804ZM15.8848 1.496C15.0927 1.47122 14.3127 1.69468 13.654 2.13509L14.2098 2.96642C14.6952 2.6419 15.2699 2.47725 15.8535 2.49551L15.8848 1.496ZM13.6511 2.13705C13.4891 2.24699 13.2767 2.24699 13.1147 2.13705L12.5531 2.96446C13.0541 3.30452 13.7117 3.30452 14.2127 2.96446L13.6511 2.13705ZM13.1126 2.13567C12.4564 1.695 11.6785 1.47127 10.8885 1.496L10.9198 2.49551C11.5007 2.47733 12.0726 2.64183 12.5551 2.96584L13.1126 2.13567ZM10.8866 1.49606C9.88321 1.53127 8.93378 1.95905 8.24268 2.68733L8.96806 3.37568C9.47872 2.83755 10.1803 2.52146 10.9217 2.49545L10.8866 1.49606ZM8.24382 2.68613C8.04815 2.89097 7.77821 3.036 7.47482 3.10725L7.70343 4.08076C8.16654 3.97201 8.6181 3.74204 8.96692 3.37688L8.24382 2.68613ZM7.48365 3.10526C6.60243 3.29543 5.80021 3.74992 5.18411 4.40805L5.91414 5.09146C6.39116 4.5819 7.0123 4.23 7.6946 4.08275L7.48365 3.10526ZM5.19557 4.3962L5.18807 4.4037L5.89518 5.11081L5.90268 5.10331L5.19557 4.3962ZM5.17847 4.41357C3.9234 5.73976 3.25007 7.47767 3.25813 9.30746L4.25812 9.30305C4.25117 7.72484 4.83034 6.23625 5.90478 5.10094L5.17847 4.41357ZM3.25812 9.30525V9.32025H4.25812V9.30525H3.25812ZM3.26198 9.38227C3.25808 9.351 3.25836 9.3225 3.25888 9.34875C3.25904 9.35674 3.25921 9.36946 3.25938 9.38745C3.25973 9.42309 3.26003 9.4746 3.26028 9.54029C3.26079 9.67143 3.26111 9.85599 3.26129 10.0764C3.26164 10.5171 3.2614 11.0992 3.26094 11.6797C3.26047 12.2602 3.25976 12.8388 3.25918 13.2723C3.25889 13.4891 3.25862 13.6696 3.25843 13.7958C3.25834 13.859 3.25826 13.9086 3.25821 13.9424C3.25818 13.9593 3.25816 13.9722 3.25815 13.981C3.25814 13.9853 3.25813 13.9886 3.25813 13.9909C3.25813 13.992 3.25813 13.9928 3.25813 13.9934C3.25812 13.9936 3.25812 13.9938 3.25812 13.994C3.25812 13.9941 3.25812 13.9941 3.25812 13.9941C3.25812 13.9942 3.25812 13.9942 3.75812 13.995C4.25812 13.9958 4.25812 13.9958 4.25812 13.9958C4.25812 13.9957 4.25812 13.9957 4.25812 13.9956C4.25812 13.9955 4.25812 13.9953 4.25812 13.995C4.25812 13.9944 4.25813 13.9936 4.25813 13.9925C4.25813 13.9902 4.25814 13.9869 4.25814 13.9826C4.25816 13.9738 4.25818 13.9609 4.2582 13.9439C4.25826 13.9101 4.25834 13.8605 4.25843 13.7974C4.25862 13.671 4.25888 13.4905 4.25918 13.2737C4.25976 12.8401 4.26047 12.2613 4.26094 11.6805C4.2614 11.0999 4.26164 10.5171 4.26129 10.0756C4.26111 9.85493 4.26079 9.66913 4.26027 9.53641C4.26002 9.47018 4.25971 9.41638 4.25934 9.37783C4.25915 9.35873 4.25894 9.34213 4.25869 9.32914C4.25856 9.32283 4.2584 9.31568 4.25815 9.3088C4.25804 9.30544 4.25784 9.30043 4.25752 9.29471C4.25739 9.29233 4.2566 9.27696 4.25426 9.25824L3.26198 9.38227ZM3.75812 14.495H4.50362V13.495H3.75812V14.495ZM4.50312 14.495L19.4986 14.51L19.4996 13.51L4.50412 13.495L4.50312 14.495ZM19.5071 14.5099L20.2571 14.4979L20.2411 13.4981L19.4911 13.5101L19.5071 14.5099ZM20.2491 13.998C20.749 14.0096 20.749 14.0096 20.749 14.0096C20.749 14.0096 20.749 14.0096 20.749 14.0096C20.749 14.0095 20.749 14.0095 20.749 14.0094C20.749 14.0092 20.749 14.009 20.749 14.0086C20.749 14.008 20.7491 14.007 20.7491 14.0056C20.7491 14.0029 20.7492 13.999 20.7494 13.9937C20.7496 13.9833 20.75 13.9679 20.7504 13.9482C20.7514 13.9087 20.7528 13.8517 20.7545 13.782C20.7579 13.6426 20.7626 13.4523 20.7681 13.2487C20.779 12.8385 20.7924 12.3825 20.8025 12.1736L19.8037 12.1249C19.7929 12.3473 19.7793 12.8156 19.7684 13.222C19.763 13.4266 19.7582 13.6177 19.7548 13.7575C19.753 13.8275 19.7517 13.8846 19.7507 13.9243C19.7503 13.9442 19.7499 13.9597 19.7496 13.9702C19.7495 13.9755 19.7494 13.9795 19.7494 13.9822C19.7493 13.9836 19.7493 13.9846 19.7493 13.9853C19.7493 13.9857 19.7493 13.9859 19.7493 13.9861C19.7493 13.9862 19.7493 13.9862 19.7493 13.9863C19.7493 13.9863 19.7493 13.9863 19.7493 13.9863C19.7493 13.9864 19.7493 13.9864 20.2491 13.998ZM20.8026 12.1724C20.8114 11.9813 20.8189 11.7392 20.824 11.547C20.8266 11.4504 20.8287 11.3656 20.8301 11.3048C20.8308 11.2745 20.8313 11.2501 20.8317 11.2333C20.8319 11.2249 20.832 11.2184 20.8321 11.214C20.8322 11.2118 20.8322 11.2101 20.8322 11.2089C20.8322 11.2083 20.8323 11.2079 20.8323 11.2076C20.8323 11.2074 20.8323 11.2073 20.8323 11.2072C20.8323 11.2072 20.8323 11.2072 20.8323 11.2071C20.8323 11.2071 20.8323 11.2071 20.8323 11.2071C20.8323 11.2071 20.8323 11.2071 20.3324 11.1968C19.8325 11.1864 19.8325 11.1864 19.8325 11.1864C19.8325 11.1864 19.8325 11.1864 19.8325 11.1864C19.8325 11.1864 19.8325 11.1865 19.8325 11.1865C19.8325 11.1866 19.8325 11.1866 19.8325 11.1868C19.8325 11.187 19.8325 11.1874 19.8324 11.188C19.8324 11.189 19.8324 11.1906 19.8323 11.1928C19.8323 11.197 19.8321 11.2033 19.8319 11.2115C19.8316 11.2279 19.8311 11.2518 19.8304 11.2817C19.829 11.3415 19.827 11.425 19.8244 11.5201C19.8193 11.7111 19.812 11.9452 19.8037 12.1261L20.8026 12.1724ZM20.8322 11.2117C20.8434 10.835 20.9982 10.4647 21.259 10.1697L20.5098 9.50735C20.1076 9.96231 19.8514 10.5521 19.8326 11.1819L20.8322 11.2117ZM21.2584 10.1703C21.821 9.53621 22.1399 8.72283 22.1583 7.87535L21.1585 7.85366C21.1453 8.46409 20.9155 9.04995 20.5103 9.50669L21.2584 10.1703ZM22.1582 7.87867C22.1787 7.15493 21.978 6.44215 21.583 5.8354L20.745 6.38102C21.029 6.81734 21.1733 7.3299 21.1586 7.85034L22.1582 7.87867ZM21.583 5.8354C21.1879 5.22864 20.6173 4.75677 19.9471 4.48271L19.5686 5.4083C20.0505 5.60538 20.4609 5.9447 20.745 6.38102L21.583 5.8354Z" fill="#4C435C" mask="url(#path-1-inside-1_2141_6702)"/>
<path d="M19.5 14.259C20.0537 14.259 20.4795 13.7888 20.4998 13.2579C20.4998 13.2573 20.4998 13.2567 20.4998 13.2561L20.5537 12.1605L20.5537 12.1593C20.5559 12.1107 20.5581 12.0585 20.5602 12.0045C20.9031 12.2381 21.1749 12.5661 21.3401 12.9525C21.5566 13.4587 21.5742 14.028 21.3894 14.5467C21.2046 15.0654 20.831 15.4953 20.3432 15.7506C19.8553 16.006 19.2891 16.0679 18.7576 15.9242C18.2261 15.7804 17.7683 15.4415 17.4757 14.975C17.1831 14.5086 17.0772 13.949 17.179 13.4079C17.2809 12.8667 17.5831 12.3839 18.0253 12.0558L17.8779 11.8572L18.0253 12.0558C18.4051 11.774 18.8642 11.6241 19.3331 11.6251L19.2501 14.0003L19.2411 14.259H19.5ZM3.51078 11.9675C3.5104 12.2539 3.5099 12.5181 3.50946 12.7309L3.5086 13.1044L3.50834 13.2077L3.50826 13.2348L3.50824 13.2417L3.50824 13.2435L3.50824 13.2439L3.50824 13.244L3.50824 13.244L3.75824 13.2448L3.50805 13.2441L3.5084 13.2538C3.52786 13.789 3.95347 14.2448 4.50449 14.2448H4.75449V13.9948V11.6261C5.27367 11.6423 5.77101 11.8429 6.15663 12.1931C6.55885 12.5583 6.81075 13.0602 6.86329 13.601C6.91582 14.1418 6.76523 14.6827 6.44083 15.1186C6.11644 15.5544 5.64145 15.854 5.10835 15.9588C4.57526 16.0637 4.0222 15.9665 3.55686 15.686C3.09153 15.4056 2.74721 14.962 2.59096 14.4416C2.4347 13.9213 2.47768 13.3614 2.71154 12.8709C2.88913 12.4985 3.16714 12.1864 3.51078 11.9675Z" fill="#F4C6AD" stroke="#4C435C" stroke-width="0.5"/>
<path d="M19.5345 13.0135L19.5 14.0095H19.515L19.4805 15.6625C19.3012 20.0515 16.008 23.0005 12.0037 23.0005C7.99947 23.0005 4.70622 20.0523 4.52622 15.6625L4.46997 13.9938L4.50447 13.9945V10.9945C4.48197 10.3495 4.77522 9.85227 5.21697 9.39477C5.70172 8.8885 6.02267 8.2479 6.13797 7.55652C6.14183 7.52951 6.15379 7.5043 6.17226 7.48421C6.19074 7.46413 6.21487 7.45012 6.24147 7.44402C6.31497 7.42152 6.38097 7.46652 6.40347 7.52652C6.86022 8.68152 7.96497 9.50727 9.26097 9.50727C9.59247 9.50727 9.86547 9.22977 9.86547 8.89227V7.59402C9.86547 7.51152 9.91722 7.45152 9.98322 7.43652H10.0792C10.1123 7.44658 10.141 7.46778 10.1602 7.49652C10.6218 8.119 11.2225 8.62499 11.9143 8.9741C12.6062 9.32322 13.37 9.5058 14.145 9.50727H17.9535C18.882 9.50727 19.626 10.2873 19.596 11.2405L19.572 11.9343L19.5435 12.5643L19.5345 13.0135Z" fill="#FFD7C2"/>
<path d="M12.0016 17.8809C11.2142 17.883 10.4381 17.6943 9.73957 17.3311C9.69114 17.3045 9.63517 17.295 9.58068 17.3041C9.52619 17.3133 9.47636 17.3404 9.4392 17.3813C9.40205 17.4222 9.37973 17.4744 9.37585 17.5295C9.37197 17.5846 9.38676 17.6394 9.41782 17.6851C9.69563 18.1184 10.0778 18.475 10.5292 18.7223C10.9806 18.9695 11.4869 19.0995 12.0016 19.1004C12.5163 19.0995 13.0225 18.9695 13.474 18.7223C13.9254 18.475 14.3075 18.1184 14.5853 17.6851C14.7203 17.4744 14.4878 17.2186 14.2628 17.3311C13.5661 17.6985 12.7892 17.8874 12.0016 17.8809Z" fill="#990838"/>
<path d="M11.9948 17C12.5048 17 12.9473 16.7413 13.2173 16.3453C13.4573 15.9875 13.2023 15.5 12.7748 15.5H11.2223C10.7948 15.5 10.5398 15.9875 10.7798 16.3453C11.0423 16.7413 11.4923 17 11.9948 17Z" fill="#E5AF93"/>
<path d="M6.14247 13.9025C6.27064 13.4009 6.56204 12.9562 6.97075 12.6385C7.37947 12.3207 7.88227 12.148 8.39997 12.1475C9.53247 12.1475 10.47 12.95 10.68 14.015C10.725 14.2475 10.5375 14.465 10.2975 14.465H6.59247C6.29247 14.465 6.06747 14.1875 6.14247 13.9025ZM17.8725 13.9025C17.7443 13.4009 17.4529 12.9562 17.0442 12.6385C16.6355 12.3207 16.1327 12.148 15.615 12.1475C14.4825 12.1475 13.545 12.95 13.335 14.015C13.29 14.2475 13.4775 14.465 13.7175 14.465H17.4225C17.7225 14.465 17.9475 14.1875 17.8725 13.9025Z" fill="white"/>
<path d="M7.26001 14.0748C7.26001 13.2573 7.92751 12.5898 8.74501 12.5898C8.97383 12.5903 9.19946 12.6436 9.40436 12.7454C9.60927 12.8473 9.78795 12.995 9.92652 13.1771C10.0651 13.3591 10.1598 13.5707 10.2033 13.7954C10.2469 14.02 10.238 14.2517 10.1775 14.4723H7.31251C7.28251 14.3448 7.26001 14.2098 7.26001 14.0748ZM16.755 14.0748C16.755 13.2573 16.0875 12.5898 15.27 12.5898C15.0412 12.5903 14.8156 12.6436 14.6107 12.7454C14.4057 12.8473 14.2271 12.995 14.0885 13.1771C13.9499 13.3591 13.8552 13.5707 13.8117 13.7954C13.7682 14.02 13.777 14.2517 13.8375 14.4723H16.7025C16.7325 14.3448 16.755 14.2098 16.755 14.0748Z" fill="#7D4533"/>
<path d="M8.745 13.2275C8.89135 13.2273 9.03527 13.2649 9.16276 13.3368C9.29024 13.4087 9.39693 13.5124 9.47245 13.6377C9.54797 13.7631 9.58974 13.9059 9.59369 14.0522C9.59764 14.1985 9.56364 14.3433 9.495 14.4725H7.995C7.92636 14.3433 7.89235 14.1985 7.89631 14.0522C7.90026 13.9059 7.94202 13.7631 8.01754 13.6377C8.09306 13.5124 8.19976 13.4087 8.32724 13.3368C8.45472 13.2649 8.59865 13.2273 8.745 13.2275ZM15.27 13.2275C15.1236 13.2273 14.9797 13.2649 14.8522 13.3368C14.7248 13.4087 14.6181 13.5124 14.5425 13.6377C14.467 13.7631 14.4253 13.9059 14.4213 14.0522C14.4174 14.1985 14.4514 14.3433 14.52 14.4725H16.02C16.0886 14.3433 16.1226 14.1985 16.1187 14.0522C16.1147 13.9059 16.073 13.7631 15.9975 13.6377C15.9219 13.5124 15.8152 13.4087 15.6878 13.3368C15.5603 13.2649 15.4163 13.2273 15.27 13.2275Z" fill="black"/>
<path d="M8.49741 13.49C8.49741 13.5597 8.46976 13.6264 8.42053 13.6757C8.3713 13.7249 8.30453 13.7525 8.23491 13.7525C8.16529 13.7525 8.09852 13.7249 8.0493 13.6757C8.00007 13.6264 7.97241 13.5597 7.97241 13.49C7.97241 13.4204 8.00007 13.3537 8.0493 13.3044C8.09852 13.2552 8.16529 13.2275 8.23491 13.2275C8.30453 13.2275 8.3713 13.2552 8.42053 13.3044C8.46976 13.3537 8.49741 13.4204 8.49741 13.49ZM15.0749 13.49C15.0749 13.5245 15.0681 13.5586 15.0549 13.5905C15.0417 13.6223 15.0224 13.6513 14.998 13.6757C14.9737 13.7 14.9447 13.7194 14.9129 13.7326C14.881 13.7458 14.8469 13.7525 14.8124 13.7525C14.7779 13.7525 14.7438 13.7458 14.712 13.7326C14.6801 13.7194 14.6512 13.7 14.6268 13.6757C14.6024 13.6513 14.5831 13.6223 14.5699 13.5905C14.5567 13.5586 14.5499 13.5245 14.5499 13.49C14.5499 13.4204 14.5776 13.3537 14.6268 13.3044C14.676 13.2552 14.7428 13.2275 14.8124 13.2275C14.882 13.2275 14.9488 13.2552 14.998 13.3044C15.0473 13.3537 15.0749 13.4204 15.0749 13.49Z" fill="white"/>
<path d="M7.20588 11.4225C7.59663 11.2837 8.15688 11.178 8.89713 11.2477C8.94618 11.2523 8.99566 11.2473 9.04275 11.2328C9.08983 11.2183 9.13361 11.1947 9.17156 11.1632C9.20952 11.1318 9.24092 11.0933 9.26396 11.0497C9.28701 11.0062 9.30125 10.9585 9.30588 10.9095C9.31051 10.8604 9.30543 10.8109 9.29094 10.7639C9.27645 10.7168 9.25282 10.673 9.22141 10.635C9.19 10.5971 9.15143 10.5657 9.10788 10.5426C9.06434 10.5196 9.01668 10.5053 8.96763 10.5007C8.11788 10.4212 7.44813 10.5405 6.95388 10.716C6.90749 10.7325 6.86482 10.758 6.82829 10.7911C6.79177 10.8241 6.7621 10.864 6.741 10.9085C6.69838 10.9984 6.69322 11.1015 6.72663 11.1952C6.76005 11.2889 6.82932 11.3655 6.91919 11.4081C7.00907 11.4507 7.1122 11.4559 7.20588 11.4225ZM16.6334 10.716C16.1384 10.5405 15.4694 10.4212 14.6196 10.5007C14.5706 10.5053 14.5229 10.5196 14.4794 10.5426C14.4358 10.5657 14.3973 10.5971 14.3659 10.635C14.3344 10.673 14.3108 10.7168 14.2963 10.7639C14.2818 10.8109 14.2768 10.8604 14.2814 10.9095C14.286 10.9585 14.3003 11.0062 14.3233 11.0497C14.3464 11.0933 14.3777 11.1318 14.4157 11.1632C14.4537 11.1947 14.4974 11.2183 14.5445 11.2328C14.5916 11.2473 14.6411 11.2523 14.6901 11.2477C15.4304 11.178 15.9906 11.2837 16.3814 11.4225C16.4751 11.4559 16.5782 11.4507 16.6681 11.4081C16.7579 11.3655 16.8272 11.2889 16.8606 11.1952C16.8941 11.1015 16.8889 10.9984 16.8463 10.9085C16.8036 10.8187 16.7271 10.7494 16.6334 10.716Z" fill="#212121"/>
</svg>
