<svg width="24" height="24" viewBox="0 0 24 24" fill="none" xmlns="http://www.w3.org/2000/svg">
<path d="M12 7.62744V13.1274M12 16.3734V15.8734M9.71297 3.64044C10.294 3.14544 10.585 2.89744 10.889 2.75244C11.2359 2.58689 11.6155 2.50098 12 2.50098C12.3844 2.50098 12.764 2.58689 13.111 2.75244C13.415 2.89744 13.706 3.14544 14.287 3.64044C14.886 4.15044 15.494 4.40844 16.294 4.47144C17.055 4.53244 17.436 4.56344 17.754 4.67544C18.488 4.93544 19.066 5.51244 19.325 6.24744C19.437 6.56444 19.468 6.94544 19.529 7.70744C19.592 8.50744 19.849 9.11444 20.359 9.71344C20.855 10.2944 21.103 10.5854 21.248 10.8894C21.584 11.5924 21.584 12.4094 21.248 13.1114C21.103 13.4154 20.855 13.7064 20.36 14.2874C19.8644 14.8435 19.5715 15.5508 19.529 16.2944C19.468 17.0554 19.437 17.4364 19.325 17.7544C19.1966 18.1169 18.9888 18.4461 18.7168 18.7179C18.4448 18.9897 18.1155 19.1973 17.753 19.3254C17.436 19.4374 17.055 19.4684 16.293 19.5294C15.493 19.5924 14.886 19.8494 14.287 20.3594C13.706 20.8554 13.415 21.1034 13.111 21.2484C12.764 21.414 12.3844 21.4999 12 21.4999C11.6155 21.4999 11.2359 21.414 10.889 21.2484C10.585 21.1034 10.294 20.8554 9.71297 20.3604C9.15692 19.8649 8.44957 19.572 7.70596 19.5294C6.94496 19.4684 6.56396 19.4374 6.24596 19.3254C5.88351 19.197 5.55434 18.9893 5.28252 18.7173C5.01071 18.4453 4.80313 18.116 4.67496 17.7534C4.56296 17.4364 4.53196 17.0554 4.47096 16.2934C4.42845 15.5503 4.13595 14.8434 3.64096 14.2874C3.14496 13.7064 2.89696 13.4154 2.75096 13.1114C2.58557 12.7644 2.49983 12.3848 2.5 12.0003C2.50017 11.6159 2.58626 11.2363 2.75196 10.8894C2.89696 10.5854 3.14496 10.2944 3.63996 9.71344C4.15996 9.10244 4.40896 8.49044 4.47096 7.70644C4.53196 6.94544 4.56296 6.56444 4.67496 6.24644C4.80336 5.88398 5.01115 5.55481 5.28314 5.283C5.55512 5.01118 5.88443 4.8036 6.24696 4.67544C6.56396 4.56344 6.94496 4.53244 7.70696 4.47144C8.4501 4.42893 9.15704 4.13543 9.71297 3.64044Z" stroke="#15803D" stroke-width="1.5" stroke-linecap="round" stroke-linejoin="round"/>
</svg>
