<svg width="16" height="16" viewBox="0 0 16 16" fill="none" xmlns="http://www.w3.org/2000/svg">
<path d="M8.95667 1.3837C8.65792 1.24103 8.33106 1.16699 8 1.16699C7.66894 1.16699 7.34207 1.24103 7.04333 1.3837C6.78067 1.5097 6.54 1.71503 6.20333 2.00236L6.15067 2.04636C5.86 2.30838 5.48812 2.46254 5.09733 2.48303L5.02933 2.48836C4.588 2.5237 4.27267 2.54836 3.998 2.6457C3.68583 2.75598 3.40228 2.93469 3.16812 3.16874C2.93396 3.40279 2.75511 3.68625 2.64467 3.99836C2.548 4.27303 2.52333 4.58836 2.488 5.0297L2.48267 5.0977C2.46218 5.48849 2.30801 5.86037 2.046 6.15103L2.002 6.20303C1.71467 6.54036 1.50867 6.78103 1.38333 7.0437C1.24067 7.34244 1.16663 7.66931 1.16663 8.00036C1.16663 8.33142 1.24067 8.65829 1.38333 8.95703C1.50933 9.2197 1.71467 9.46036 2.002 9.79703L2.046 9.8497C2.31933 10.1697 2.44867 10.4757 2.48267 10.903L2.488 10.971C2.52333 11.4124 2.548 11.7277 2.64533 12.0024C2.75562 12.3145 2.93433 12.5981 3.16838 12.8322C3.40243 13.0664 3.68589 13.2453 3.998 13.3557C4.27267 13.4524 4.588 13.477 5.02933 13.5124L5.09733 13.5177C5.51667 13.551 5.824 13.6764 6.15067 13.9544L6.20267 13.9984C6.54 14.2857 6.78067 14.4917 7.04333 14.617C7.34207 14.7597 7.66894 14.8337 8 14.8337C8.33106 14.8337 8.65792 14.7597 8.95667 14.617C9.21933 14.491 9.46 14.2857 9.79667 13.9984L9.84933 13.9544C10.1693 13.681 10.4753 13.5517 10.9027 13.5177L10.9707 13.5124C11.412 13.477 11.7273 13.4524 12.002 13.355C12.3142 13.2447 12.5977 13.066 12.8319 12.832C13.066 12.5979 13.2449 12.3145 13.3553 12.0024C13.452 11.7277 13.4767 11.4124 13.512 10.971L13.5173 10.903C13.5507 10.4837 13.676 10.1764 13.954 9.8497L13.998 9.79703C14.2853 9.46036 14.4913 9.2197 14.6167 8.95703C14.7593 8.65829 14.8334 8.33142 14.8334 8.00036C14.8334 7.66931 14.7593 7.34244 14.6167 7.0437C14.4907 6.78103 14.2853 6.54036 13.998 6.2037L13.954 6.15103C13.692 5.86037 13.5378 5.48849 13.5173 5.0977L13.512 5.0297C13.4767 4.58836 13.452 4.27303 13.3547 3.99836C13.2444 3.6862 13.0657 3.40265 12.8316 3.16848C12.5976 2.93432 12.3141 2.75547 12.002 2.64503C11.7273 2.54836 11.412 2.5237 10.9707 2.48836L10.9027 2.48303C10.5119 2.46254 10.14 2.30838 9.84933 2.04636L9.79667 2.00236C9.46 1.71503 9.21933 1.50903 8.95667 1.3837ZM8 4.58503C8.13261 4.58503 8.25978 4.63771 8.35355 4.73148C8.44732 4.82525 8.5 4.95242 8.5 5.08503V8.7517C8.5 8.88431 8.44732 9.01148 8.35355 9.10525C8.25978 9.19902 8.13261 9.2517 8 9.2517C7.86739 9.2517 7.74021 9.19902 7.64645 9.10525C7.55268 9.01148 7.5 8.88431 7.5 8.7517V5.08503C7.5 4.95242 7.55268 4.82525 7.64645 4.73148C7.74021 4.63771 7.86739 4.58503 8 4.58503ZM8.5 10.5824V10.9157C8.5 11.0483 8.44732 11.1755 8.35355 11.2692C8.25978 11.363 8.13261 11.4157 8 11.4157C7.86739 11.4157 7.74021 11.363 7.64645 11.2692C7.55268 11.1755 7.5 11.0483 7.5 10.9157V10.5824C7.5 10.4498 7.55268 10.3226 7.64645 10.2288C7.74021 10.135 7.86739 10.0824 8 10.0824C8.13261 10.0824 8.25978 10.135 8.35355 10.2288C8.44732 10.3226 8.5 10.4498 8.5 10.5824Z" fill="#9E55EC"/>
</svg>
